{"title":"RAIN OVER ME PITBUL 4K MASTERED [PhYsIcIaN].mp4","uid":11237794,"size":745834895,"categoryP":"video","categoryS":"other","magnet":"?xt=urn:btih:e9c87810b63556b95432bb1b15b6837232c68aa6&amp;dn=RAIN+OVER+ME+PITBUL+4K+MASTERED+%5BPhYsIcIaN%5D.mp4&amp;tr=udp%3A%2F%2Ftracker.openbittorrent.com%3A80&amp;tr=udp%3A%2F%2Fopen.demonii.com%3A1337&amp;tr=udp%3A%2F%2Ftracker.coppersurfer.tk%3A6969&amp;tr=udp%3A%2F%2Fexodus.desync.com%3A6969","seeders":3,"leechers":1,"uploader":"physician","files":1,"time":1413619056,"description":"General\nComplete name                            : D:SONGSVIDEORAIN OVER ME PITBUL 4K MASTERED [PhYsIcIaN].mp4\nFormat                                   : MPEG-4\nFormat profile                           : Base Media / Version 2\nCodec ID                                 : mp42\nFile size                                : 711 MiB\nDuration                                 : 3mn 53s\nOverall bit rate mode                    : Variable\nOverall bit rate                         : 25.5 Mbps\nEncoded date                             : UTC 2014-10-18 10:59:09\nTagged date                              : UTC 2014-10-18 10:59:41\nÂ©TIM                                     : 00:00:00:00\nÂ©TSC                                     : 24000\nÂ©TSZ                                     : 1001\n\nVideo\nID                                       : 1\nFormat                                   : AVC\nFormat/Info                              : Advanced Video Codec\nFormat profile                           : &lt;a class=&quot;__cf_email__&quot; href=&quot;/cdn-cgi/l/email-protection&quot; data-cfemail=&quot;2d604c44436d6118031c&quot;&gt;[email&amp;#160;protected]&lt;/a&gt;&lt;script cf-hash='f9e31' type=&quot;text/javascript&quot;&gt;\n/* &lt;![CDATA[ */!function(){try{var t=&quot;currentScript&quot;in document?document.currentScript:function(){for(var t=document.getElementsByTagName(&quot;script&quot;),e=t.length;e--;)if(t[e].getAttribute(&quot;cf-hash&quot;))return t[e]}();if(t&amp;&amp;t.previousSibling){var e,r,n,i,c=t.previousSibling,a=c.getAttribute(&quot;data-cfemail&quot;);if(a){for(e=&quot;&quot;,r=parseInt(a.substr(0,2),16),n=2;a.length-n;n+=2)i=parseInt(a.substr(n,2),16)^r,e+=String.fromCharCode(i);e=document.createTextNode(e),c.parentNode.replaceChild(e,c)}}}catch(u){}}();/* ]]&gt; */&lt;/script&gt;\nFormat settings, CABAC                   : Yes\nFormat settings, ReFrames                : 3 frames\nCodec ID                                 : avc1\nCodec ID/Info                            : Advanced Video Coding\nDuration                                 : 3mn 53s\nBit rate mode                            : Variable\nBit rate                                 : 25.0 Mbps\nWidth                                    : 3 840 pixels\nHeight                                   : 2 160 pixels\nDisplay aspect ratio                     : 16:9\nFrame rate mode                          : Constant\nFrame rate                               : 23.976 fps\nStandard                                 : NTSC\nColor space                              : YUV\nChroma subsampling                       : 4:2:0\nBit depth                                : 8 bits\nScan type                                : Progressive\nBits/(Pixel*Frame)                       : 0.126\nStream size                              : 693 MiB (97%)\nLanguage                                 : English\nEncoded date                             : UTC 2014-10-18 10:59:09\nTagged date                              : UTC 2014-10-18 10:59:09\n\nAudio\nID                                       : 2\nFormat                                   : AAC\nFormat/Info                              : Advanced Audio Codec\nFormat profile                           : LC\nCodec ID                                 : 40\nDuration                                 : 3mn 53s\nSource duration                          : 3mn 53s\nBit rate mode                            : Variable\nBit rate                                 : 637 Kbps\nMaximum bit rate                         : 769 Kbps\nChannel(s)                               : 6 channels\nChannel positions                        : Front: L C R, Side: L R, LFE\nSampling rate                            : 48.0 KHz\nCompression mode                         : Lossy\nStream size                              : 17.8 MiB (2%)\nSource stream size                       : 17.8 MiB (2%)\nLanguage                                 : English\nEncoded date                             : UTC 2014-10-18 10:59:09\nTagged date                              : UTC 2014-10-18 10:59:09\n\nscreens","torrent":{"xt":"urn:btih:e9c87810b63556b95432bb1b15b6837232c68aa6","amp;dn":"RAIN+OVER+ME+PITBUL+4K+MASTERED+%5BPhYsIcIaN%5D.mp4","amp;tr":["udp%3A%2F%2Ftracker.openbittorrent.com%3A80","udp%3A%2F%2Fopen.demonii.com%3A1337","udp%3A%2F%2Ftracker.coppersurfer.tk%3A6969","udp%3A%2F%2Fexodus.desync.com%3A6969"],"infoHash":"e9c87810b63556b95432bb1b15b6837232c68aa6","infoHashBuffer":{"type":"Buffer","data":[233,200,120,16,182,53,86,185,84,50,187,27,21,182,131,114,50,198,138,166]},"announce":[],"urlList":[]}}